# xmcd CD database file
#
# Track frame offsets:
#	150
#	13057
#	25766
#	38379
#	52683
#	66624
#	81065
#	94674
#	109410
#	122978
#	136039
#	152896
#	168186
#	182632
#	197226
#	213184
#	226047
#	239790
#
# Disc length: 3376 seconds
#
# Revision: 0
# Processed by: cddbd v1.5.2PL0 Copyright (c) Steve Scherf et al.
# Submitted via: CDex 1.70beta2
#
DISCID=e90d2e12
DTITLE=Billie Holiday - The Discovery Of Jazz
DYEAR=2004
DGENRE=Jazz
TTITLE0=Did I Remember
TTITLE1=Falling In Love Again
TTITLE2=Dream Of Life
TTITLE3=Deep Song
TTITLE4=Careless
TTITLE5=Easy To Love
TTITLE6=Everybody's Laughing
TTITLE7=Embraceable You
TTITLE8=Detour Head
TTITLE9=East Of The Sun (West Of The Moon)
TTITLE10=Everything I Have Is Yours
TTITLE11=Don't Explain
TTITLE12=Easy Living
TTITLE13=Eeny Meeny Mine
TTITLE14=Do Nothing 'till You Hear From Me
TTITLE15=Everything Happens For The Best
TTITLE16=Crazy He Calls Me
TTITLE17=Foolin' Myself
EXTD=YEAR: 2004
EXTT0=
EXTT1=
EXTT2=
EXTT3=
EXTT4=
EXTT5=
EXTT6=
EXTT7=
EXTT8=
EXTT9=
EXTT10=
EXTT11=
EXTT12=
EXTT13=
EXTT14=
EXTT15=
EXTT16=
EXTT17=
PLAYORDER=
